<svg width="16" height="15" viewBox="0 0 16 15" fill="none" xmlns="http://www.w3.org/2000/svg">
<path fill-rule="evenodd" clip-rule="evenodd" d="M0.900146 14.695H3.50015V6.11496H0.900146V14.695ZM15.2001 6.82996C15.2001 6.04346 14.6151 5.39996 13.9001 5.39996H9.79865L10.4161 2.13241L10.4356 1.90361C10.4356 1.61046 10.3251 1.33876 10.1496 1.14571L9.46065 0.394958L5.18365 5.10681C4.94315 5.36421 4.80015 5.72171 4.80015 6.11496V13.265C4.80015 14.0515 5.38515 14.695 6.10015 14.695H11.9501C12.4896 14.695 12.9511 14.3375 13.1461 13.8227L15.1091 8.78191C15.1676 8.61746 15.2001 8.44586 15.2001 8.25996V6.89431L15.1936 6.88716L15.2001 6.82996Z" fill="#9B9B9B"/>
</svg>
