<svg width="18" height="21" viewBox="0 0 18 21" fill="none" xmlns="http://www.w3.org/2000/svg">
<path d="M3.26582 20.3924C2.96203 20.7975 2.6076 21 2.20253 21C1.72152 21 1.35443 20.7722 1.10127 20.3165C1.02532 20.1646 0.987342 20 0.987342 19.8228C0.987342 19.6456 1.06329 19.443 1.21519 19.2152L7.74684 10.2532L1.67089 1.89873C1.5443 1.72152 1.48101 1.5443 1.48101 1.36709C1.48101 1.16456 1.51899 0.999999 1.59494 0.873417C1.67089 0.721518 1.77215 0.594936 1.89873 0.49367C2.20253 0.240506 2.49367 0.113925 2.77215 0.113925C3.3038 0.113925 3.70886 0.316456 3.98734 0.721518L9.49367 8.62025L15.1899 0.721518C15.4937 0.316456 15.8481 0.113925 16.2532 0.113925C16.7595 0.113925 17.1139 0.329114 17.3165 0.759493C17.3924 0.886075 17.4304 1.01266 17.4304 1.13924C17.4304 1.34177 17.3544 1.56962 17.2025 1.82278L10.9367 10.2532L17.3544 19.1392C17.6076 19.5443 17.6582 19.8734 17.5063 20.1266C17.3797 20.3544 17.2532 20.519 17.1266 20.6203C16.8481 20.8734 16.519 21 16.1392 21C15.7595 21 15.4177 20.8101 15.1139 20.4304L9.18987 11.962L3.26582 20.3924Z" fill="white"/>
</svg>
