<svg width="22" height="15" viewBox="0 0 22 15" fill="none" xmlns="http://www.w3.org/2000/svg">
<path d="M19.154 4.69934C19.7397 5.22342 20.2329 5.73208 20.6029 6.13284C20.8585 6.41607 21 6.78404 21 7.16557C21 7.5471 20.8585 7.91507 20.6029 8.19831C18.9844 9.94008 15.3005 13.3311 11 13.3311H10.3834M6.17544 11.9901C4.38994 10.9901 2.77663 9.7099 1.39712 8.19831C1.1415 7.91507 1 7.5471 1 7.16557C1 6.78404 1.1415 6.41607 1.39712 6.13284C3.01559 4.39106 6.69951 1 11 1C12.6952 1.03543 14.3542 1.49657 15.8246 2.34101M8.82663 9.33896C8.24771 8.76348 7.92065 7.98188 7.91721 7.16559C7.91721 6.34799 8.242 5.56387 8.82014 4.98574C9.39827 4.4076 10.1824 4.08281 11 4.08281C11.8163 4.08625 12.5979 4.4133 13.1734 4.99223M13.682 8.70699C13.4076 9.17604 13.0141 9.56422 12.5414 9.8322" stroke="#BBBBBB" stroke-width="1.5" stroke-linecap="round" stroke-linejoin="round"/>
</svg>
