<svg width="22" height="19" viewBox="0 0 22 19" fill="none" xmlns="http://www.w3.org/2000/svg">
<path d="M1.99346 10.7587L19.3834 10.7587C19.6809 10.7587 19.9658 10.6397 20.1756 10.4284C20.3854 10.2172 20.5029 9.93116 20.5029 9.63322C20.5029 9.33528 20.3854 9.0492 20.1756 8.83801C19.9658 8.62676 19.6809 8.50777 19.3834 8.50777L1.99346 8.50777C1.69599 8.50777 1.41106 8.62676 1.20125 8.83801C0.991489 9.0492 0.873957 9.33528 0.873957 9.63322C0.873957 9.93116 0.991489 10.2172 1.20125 10.4284C1.41106 10.6397 1.69599 10.7587 1.99346 10.7587Z" fill="black" stroke="black" stroke-width="0.5"/>
<path d="M11.6344 2.55013L11.6344 2.55011C11.4244 2.33871 11.3068 2.05235 11.3068 1.75412C11.3068 1.45589 11.4244 1.16953 11.6344 0.95813C11.8444 0.746675 12.1296 0.627569 12.4274 0.627569C12.7251 0.627569 13.0103 0.746675 13.2203 0.958132L21.0456 8.83692C21.1498 8.94154 21.2323 9.06574 21.2886 9.20235C21.3449 9.33895 21.3739 9.48534 21.3739 9.63314C21.3739 9.78094 21.3449 9.92732 21.2886 10.0639L21.0575 9.96867L21.2886 10.0639C21.2324 10.2005 21.1499 10.3246 21.0458 10.4292L21.0458 10.4291L20.8686 10.253L21.0456 10.4293L11.6344 2.55013ZM11.6344 2.55013L18.671 9.63314L11.6344 2.55013Z" fill="black" stroke="black" stroke-width="0.5"/>
</svg>
