<svg width="28" height="28" viewBox="0 0 28 28" fill="none" xmlns="http://www.w3.org/2000/svg">
<path d="M27.0608 4.78987C27.0608 2.38864 25.1072 0.435059 22.706 0.435059C20.3047 0.435059 18.3511 2.38864 18.3511 4.78987C18.3511 5.74663 18.6651 6.65638 19.2278 7.40271H18.3511V8.70918C18.3511 9.42945 18.9374 10.0157 19.6576 10.0157H22.2705V10.634C22.2705 10.8365 22.1328 11.0107 21.9356 11.0577L5.38719 14.998C5.25477 15.0289 5.12152 14.9989 5.01617 14.9162C4.91164 14.8329 4.8511 14.7085 4.8511 14.5743V14.3705H7.46396C8.18423 14.3705 8.77043 13.7843 8.77043 13.064V11.7576H7.89378C8.45639 11.0112 8.77043 10.1014 8.77043 9.14477C8.77043 6.74354 6.81685 4.78996 4.41561 4.78996C2.01437 4.78996 0.060791 6.74344 0.060791 9.14467C0.060791 10.1014 0.374743 11.0112 0.937443 11.7575H0.0608825V13.064C0.0608825 13.7843 0.647085 14.3705 1.36736 14.3705H3.98021V14.5743C3.98021 14.9767 4.16138 15.3504 4.47707 15.5995C4.71091 15.7841 4.99395 15.8812 5.28403 15.8812C5.38554 15.8812 5.48824 15.8694 5.5893 15.8451L12.6585 14.162C12.645 14.2047 12.632 14.2477 12.6246 14.293L10.4337 27.435H16.6876L14.4972 14.293C14.4641 14.094 14.3692 13.9211 14.2368 13.7861L22.1372 11.9049C22.7286 11.7647 23.1415 11.242 23.1415 10.6341V10.0157H25.7543C26.4746 10.0157 27.0608 9.42954 27.0608 8.70928V7.40271H26.1841C26.7467 6.65638 27.0608 5.74663 27.0608 4.78987ZM0.931774 9.14467C0.931774 7.22374 2.49468 5.66085 4.41561 5.66085C6.33655 5.66085 7.89945 7.22374 7.89945 9.14467C7.89945 10.1506 7.47091 11.0948 6.71753 11.7575H2.11378C1.36041 11.0948 0.931774 10.1506 0.931774 9.14467ZM1.36736 13.4995C1.12693 13.4995 0.931865 13.304 0.931865 13.064V12.6285H1.80065H7.03075H7.89954V13.064C7.89954 13.304 7.70448 13.4995 7.46405 13.4995H1.36736ZM15.6595 26.5639H11.4618L13.4834 14.4358C13.496 14.3599 13.6253 14.3599 13.6379 14.4358L15.6595 26.5639ZM19.222 4.78987C19.222 2.86894 20.7849 1.30604 22.7059 1.30604C24.6268 1.30604 26.1897 2.86894 26.1897 4.78987C26.1897 5.79583 25.7612 6.73997 25.0078 7.40271H20.4039C19.6507 6.73997 19.222 5.79583 19.222 4.78987ZM26.1897 8.27369V8.70918H26.1898C26.1898 8.94915 25.9947 9.14467 25.7543 9.14467H19.6575C19.4171 9.14467 19.222 8.94915 19.222 8.70918V8.27369H20.0908H25.3209H26.1897Z" fill="#9B9B9B" stroke="#9B9B9B" stroke-width="0.000739583"/>
</svg>
