<svg width="48" height="49" viewBox="0 0 48 49" fill="none" xmlns="http://www.w3.org/2000/svg">
<g filter="url(#filter0_d_146_4424)">
<ellipse cx="24" cy="20.0449" rx="20" ry="20.0449" fill="#F7F7F7"/>
</g>
<path d="M24 15.5005L23.4596 16.0206C23.601 16.1675 23.7961 16.2505 24 16.2505C24.2039 16.2505 24.399 16.1675 24.5404 16.0206L24 15.5005ZM19.0006 26.4208C18.6808 26.1576 18.2081 26.2035 17.9449 26.5233C17.6817 26.8431 17.7276 27.3158 18.0474 27.579L19.0006 26.4208ZM14.342 23.4114C14.5407 23.7748 14.9965 23.9083 15.3599 23.7095C15.7233 23.5107 15.8568 23.055 15.658 22.6916L14.342 23.4114ZM14.75 19.137C14.75 16.9861 15.9654 15.1824 17.6244 14.4241C19.2361 13.6874 21.4017 13.8825 23.4596 16.0206L24.5404 14.9804C22.0985 12.4434 19.2641 12.0253 17.0008 13.0599C14.7847 14.0728 13.25 16.4249 13.25 19.137H14.75ZM20.4974 29.4998C21.0097 29.9036 21.5595 30.3342 22.1168 30.6598C22.6739 30.9853 23.3096 31.2499 24 31.2499V29.7499C23.6904 29.7499 23.3261 29.6292 22.8736 29.3647C22.4213 29.1004 21.9521 28.7365 21.4261 28.3218L20.4974 29.4998ZM27.5026 29.4998C28.9292 28.3751 30.7528 27.0865 32.1833 25.4757C33.6395 23.836 34.75 21.8025 34.75 19.137H33.25C33.25 21.3344 32.3508 23.0281 31.0617 24.4797C29.7469 25.9602 28.0896 27.127 26.574 28.3218L27.5026 29.4998ZM34.75 19.137C34.75 16.4249 33.2153 14.0728 30.9992 13.0599C28.7359 12.0253 25.9015 12.4434 23.4596 14.9804L24.5404 16.0206C26.5983 13.8825 28.7639 13.6874 30.3756 14.4241C32.0346 15.1824 33.25 16.9861 33.25 19.137H34.75ZM26.574 28.3218C26.0479 28.7365 25.5787 29.1004 25.1264 29.3647C24.6739 29.6292 24.3096 29.7499 24 29.7499V31.2499C24.6904 31.2499 25.3261 30.9853 25.8832 30.6598C26.4405 30.3342 26.9903 29.9036 27.5026 29.4998L26.574 28.3218ZM21.4261 28.3218C20.6301 27.6944 19.8213 27.0962 19.0006 26.4208L18.0474 27.579C18.8777 28.2623 19.7547 28.9143 20.4974 29.4998L21.4261 28.3218ZM15.658 22.6916C15.0968 21.6655 14.75 20.5032 14.75 19.137H13.25C13.25 20.7745 13.67 22.1826 14.342 23.4114L15.658 22.6916Z" fill="#9A9A9A"/>
<defs>
<filter id="filter0_d_146_4424" x="0" y="0" width="48" height="48.0898" filterUnits="userSpaceOnUse" color-interpolation-filters="sRGB">
<feFlood flood-opacity="0" result="BackgroundImageFix"/>
<feColorMatrix in="SourceAlpha" type="matrix" values="0 0 0 0 0 0 0 0 0 0 0 0 0 0 0 0 0 0 127 0" result="hardAlpha"/>
<feOffset dy="4"/>
<feGaussianBlur stdDeviation="2"/>
<feColorMatrix type="matrix" values="0 0 0 0 0 0 0 0 0 0 0 0 0 0 0 0 0 0 0.1 0"/>
<feBlend mode="normal" in2="BackgroundImageFix" result="effect1_dropShadow_146_4424"/>
<feBlend mode="normal" in="SourceGraphic" in2="effect1_dropShadow_146_4424" result="shape"/>
</filter>
</defs>
</svg>
