<svg width="36" height="36" viewBox="0 0 36 36" fill="none" xmlns="http://www.w3.org/2000/svg">
<path d="M17.8704 23.2565L13.7386 19.1257H24.7512C24.9833 19.1257 25.2058 19.0335 25.3699 18.8695C25.534 18.7054 25.6262 18.4828 25.6262 18.2507C25.6262 18.0187 25.534 17.7961 25.3699 17.632C25.2058 17.4679 24.9833 17.3757 24.7512 17.3757H13.7387L17.8704 13.2451L17.8704 13.2451C18.0346 13.0808 18.1269 12.8581 18.1269 12.6258C18.1269 12.3935 18.0346 12.1708 17.8704 12.0065C17.7062 11.8423 17.4834 11.75 17.2511 11.75C17.0188 11.75 16.7961 11.8423 16.6318 12.0065L11.0071 17.6313C11.007 17.6314 11.0069 17.6314 11.0068 17.6315C10.9254 17.7128 10.8609 17.8092 10.8168 17.9154C10.7727 18.0217 10.75 18.1357 10.75 18.2508C10.75 18.3659 10.7727 18.4798 10.8168 18.5861C10.8609 18.6924 10.9255 18.7888 11.0068 18.8701C11.0069 18.8701 11.007 18.8702 11.0071 18.8703L16.6318 24.4951C16.7961 24.6593 17.0188 24.7516 17.2511 24.7516C17.4834 24.7516 17.7062 24.6593 17.8704 24.4951C18.0346 24.3308 18.1269 24.1081 18.1269 23.8758C18.1269 23.6435 18.0346 23.4208 17.8704 23.2565L17.8704 23.2565Z" fill="black" stroke="black" stroke-width="0.5"/>
</svg>
