<svg width="22" height="19" viewBox="0 0 22 19" fill="none" xmlns="http://www.w3.org/2000/svg">
<path d="M20.2543 8.5076H2.86437C2.56691 8.5076 2.28198 8.62659 2.07217 8.83784C1.86241 9.04903 1.74487 9.33511 1.74487 9.63305C1.74487 9.93098 1.86241 10.2171 2.07217 10.4283C2.28198 10.6395 2.56691 10.7585 2.86437 10.7585H20.2543C20.5518 10.7585 20.8367 10.6395 21.0466 10.4283C21.2563 10.2171 21.3738 9.93098 21.3738 9.63305C21.3738 9.33511 21.2563 9.04903 21.0466 8.83784C20.8367 8.62659 20.5518 8.5076 20.2543 8.5076Z" fill="black" stroke="black" stroke-width="0.5"/>
<path d="M10.6134 16.7161L10.6134 16.7162C10.8234 16.9276 10.941 17.2139 10.941 17.5121C10.941 17.8104 10.8234 18.0967 10.6134 18.3081C10.4034 18.5196 10.1182 18.6387 9.82044 18.6387C9.52269 18.6387 9.23748 18.5196 9.02746 18.3081L1.20219 10.4293C1.09802 10.3247 1.01546 10.2005 0.959159 10.0639C0.90286 9.92732 0.873901 9.78093 0.873901 9.63313C0.873901 9.48533 0.90286 9.33894 0.959159 9.20234L1.1903 9.2976L0.959159 9.20234C1.01543 9.0658 1.09794 8.94166 1.20205 8.83706L1.20197 8.83714L1.37925 9.01322L1.20219 8.83692L10.6134 16.7161ZM10.6134 16.7161L3.57682 9.63313L10.6134 16.7161Z" fill="black" stroke="black" stroke-width="0.5"/>
</svg>
