<svg width="25" height="24" viewBox="0 0 25 24" fill="none" xmlns="http://www.w3.org/2000/svg">
<path d="M23.5091 10.8155L23.5091 10.8156C23.9889 11.2953 24.1313 12.0076 23.8727 12.633C23.614 13.2563 23.0051 13.6592 22.3247 13.6592H21.066H20.566V14.1592V21.1861C20.566 21.9663 19.9497 22.5874 19.1804 22.5874H12.9986V16.7351C12.9986 15.9669 12.376 15.3731 11.6252 15.3731H8.3764C7.63316 15.3731 6.99308 15.9589 6.99308 16.7351V22.588H5.82093C5.0495 22.588 4.43056 21.9653 4.43056 21.1866V14.1592V13.6592H3.93056H2.67554C1.99516 13.6592 1.38628 13.2563 1.12755 12.633C0.86853 12.0077 1.01125 11.2949 1.49059 10.8156L11.3162 0.990472L11.3162 0.990463C11.6301 0.676631 12.0567 0.5 12.5012 0.5C12.945 0.5 13.3717 0.676586 13.6856 0.990463L23.5091 10.8155Z" stroke="#BBBBBB"/>
</svg>
