<svg width="22" height="18" viewBox="0 0 22 18" fill="none" xmlns="http://www.w3.org/2000/svg">
<path fill-rule="evenodd" clip-rule="evenodd" d="M14.7834 4.22914C14.7834 4.62608 15.1052 4.94789 15.5022 4.94789H20.2939C20.6908 4.94789 21.0126 4.62608 21.0126 4.22914C21.0126 3.8322 20.6908 3.51039 20.2939 3.51039H15.5022C15.1052 3.51039 14.7834 3.8322 14.7834 4.22914Z" fill="white"/>
<path fill-rule="evenodd" clip-rule="evenodd" d="M6.63761 13.5603C6.63761 13.9573 6.31581 14.2791 5.91886 14.2791H1.1272C0.730256 14.2791 0.408447 13.9573 0.408447 13.5603C0.408447 13.1634 0.730256 12.8416 1.1272 12.8416H5.91886C6.31581 12.8416 6.63761 13.1634 6.63761 13.5603Z" fill="white"/>
<path fill-rule="evenodd" clip-rule="evenodd" d="M0.408447 4.22914C0.408447 4.62608 0.730256 4.94789 1.1272 4.94789H9.7522C10.1491 4.94789 10.4709 4.62608 10.4709 4.22914C10.4709 3.8322 10.1491 3.51039 9.7522 3.51039H1.1272C0.730256 3.51039 0.408447 3.8322 0.408447 4.22914Z" fill="white"/>
<path fill-rule="evenodd" clip-rule="evenodd" d="M21.0126 13.5603C21.0126 13.9573 20.6908 14.2791 20.2939 14.2791H11.6689C11.2719 14.2791 10.9501 13.9573 10.9501 13.5603C10.9501 13.1634 11.2719 12.8416 11.6689 12.8416H20.2939C20.6908 12.8416 21.0126 13.1634 21.0126 13.5603Z" fill="white"/>
<path fill-rule="evenodd" clip-rule="evenodd" d="M12.6272 6.48132C11.4364 6.48132 10.4709 5.5159 10.4709 4.32507C10.4709 3.13425 11.4364 2.16882 12.6272 2.16882C13.8181 2.16882 14.7834 3.13425 14.7834 4.32507C14.7834 5.5159 13.8181 6.48132 12.6272 6.48132ZM9.03345 4.32507C9.03345 6.30988 10.6424 7.91882 12.6272 7.91882C14.612 7.91882 16.2209 6.30988 16.2209 4.32507C16.2209 2.34027 14.612 0.731323 12.6272 0.731323C10.6424 0.731323 9.03345 2.34027 9.03345 4.32507Z" fill="white"/>
<path fill-rule="evenodd" clip-rule="evenodd" d="M8.79386 15.8125C9.98469 15.8125 10.9501 14.8471 10.9501 13.6562C10.9501 12.4653 9.98469 11.5 8.79386 11.5C7.60304 11.5 6.63761 12.4653 6.63761 13.6562C6.63761 14.8471 7.60304 15.8125 8.79386 15.8125ZM12.3876 13.6562C12.3876 15.641 10.7787 17.25 8.79386 17.25C6.80906 17.25 5.20011 15.641 5.20011 13.6562C5.20011 11.6714 6.80906 10.0625 8.79386 10.0625C10.7787 10.0625 12.3876 11.6714 12.3876 13.6562Z" fill="white"/>
</svg>
