<svg width="23" height="21" viewBox="0 0 23 21" fill="none" xmlns="http://www.w3.org/2000/svg">
<path d="M2.21 2.56498H5.525L7.735 0.35498H14.365L16.575 2.56498H19.89C20.4761 2.56498 21.0383 2.79782 21.4527 3.21228C21.8672 3.62673 22.1 4.18885 22.1 4.77498V18.035C22.1 18.6211 21.8672 19.1832 21.4527 19.5977C21.0383 20.0122 20.4761 20.245 19.89 20.245H2.21C1.62387 20.245 1.06175 20.0122 0.647294 19.5977C0.232839 19.1832 0 18.6211 0 18.035V4.77498C0 4.18885 0.232839 3.62673 0.647294 3.21228C1.06175 2.79782 1.62387 2.56498 2.21 2.56498ZM11.05 5.87998C9.58468 5.87998 8.17937 6.46208 7.14324 7.49822C6.1071 8.53436 5.525 9.93966 5.525 11.405C5.525 12.8703 6.1071 14.2756 7.14324 15.3118C8.17937 16.3479 9.58468 16.93 11.05 16.93C12.5153 16.93 13.9206 16.3479 14.9568 15.3118C15.9929 14.2756 16.575 12.8703 16.575 11.405C16.575 9.93966 15.9929 8.53436 14.9568 7.49822C13.9206 6.46208 12.5153 5.87998 11.05 5.87998ZM11.05 8.08998C11.9292 8.08998 12.7724 8.43924 13.3941 9.06093C14.0157 9.68261 14.365 10.5258 14.365 11.405C14.365 12.2842 14.0157 13.1274 13.3941 13.749C12.7724 14.3707 11.9292 14.72 11.05 14.72C10.1708 14.72 9.32762 14.3707 8.70594 13.749C8.08426 13.1274 7.735 12.2842 7.735 11.405C7.735 10.5258 8.08426 9.68261 8.70594 9.06093C9.32762 8.43924 10.1708 8.08998 11.05 8.08998Z" fill="white"/>
</svg>
