<svg width="24" height="24" viewBox="0 0 24 24" fill="none" xmlns="http://www.w3.org/2000/svg">
<path d="M11.8669 17.8201V11.0598" stroke="#9B9B9B" stroke-width="0.8875" stroke-linecap="round"/>
<path d="M11.8672 6.55317C12.4895 6.55317 12.9939 7.05761 12.9939 7.67987C12.9939 8.30214 12.4895 8.80658 11.8672 8.80658C11.2449 8.80658 10.7405 8.30214 10.7405 7.67987C10.7405 7.05761 11.2449 6.55317 11.8672 6.55317Z" fill="#9B9B9B"/>
<path d="M6.23341 2.42701C7.89066 1.46835 9.81478 0.919678 11.867 0.919678C18.0896 0.919678 23.1341 5.96411 23.1341 12.1867C23.1341 18.4093 18.0896 23.4538 11.867 23.4538C5.64431 23.4538 0.599854 18.4093 0.599854 12.1867C0.599854 10.1346 1.14853 8.21045 2.10719 6.55321" stroke="#9B9B9B" stroke-width="0.8875" stroke-linecap="round"/>
</svg>
