<svg width="33" height="33" viewBox="0 0 33 33" fill="none" xmlns="http://www.w3.org/2000/svg">
<path d="M32.3802 5.30792C32.3802 2.43028 30.0391 0.0891113 27.1614 0.0891113C24.2838 0.0891113 21.9426 2.43028 21.9426 5.30792C21.9426 6.4545 22.3188 7.54475 22.9932 8.43916H21.9426V10.0048C21.9426 10.868 22.6451 11.5705 23.5083 11.5705H26.6395V12.3116C26.6395 12.5542 26.4746 12.763 26.2382 12.8193L6.40659 17.5414C6.2479 17.5784 6.08822 17.5425 5.96197 17.4433C5.8367 17.3435 5.76415 17.1944 5.76415 17.0336V16.7893H8.89539C9.75857 16.7893 10.4611 16.0868 10.4611 15.2236V13.6581H9.41049C10.0847 12.7636 10.4611 11.6733 10.4611 10.5268C10.4611 7.6492 8.1199 5.30803 5.24225 5.30803C2.36461 5.30803 0.0234375 7.64909 0.0234375 10.5267C0.0234375 11.6733 0.399678 12.7636 1.07402 13.658H0.0235471V15.2236C0.0235471 16.0868 0.726053 16.7893 1.58922 16.7893H4.72047V17.0336C4.72047 17.5158 4.93758 17.9636 5.3159 18.2622C5.59614 18.4834 5.93533 18.5998 6.28297 18.5998C6.40462 18.5998 6.5277 18.5857 6.6488 18.5565L15.1205 16.5394C15.1043 16.5906 15.0887 16.6422 15.0799 16.6965L12.4543 32.4458H19.9491L17.324 16.6965C17.2844 16.458 17.1706 16.2508 17.0119 16.089L26.4798 13.8345C27.1886 13.6665 27.6833 13.0402 27.6833 12.3117V11.5706H30.8146C31.6777 11.5706 32.3802 10.8681 32.3802 10.0049V8.43916H31.3297C32.0039 7.54475 32.3802 6.4545 32.3802 5.30792ZM1.06722 10.5267C1.06722 8.22468 2.94021 6.3517 5.24225 6.3517C7.5443 6.3517 9.41728 8.22468 9.41728 10.5267C9.41728 11.7323 8.90372 12.8637 8.00088 13.658H2.48374C1.5809 12.8637 1.06722 11.7323 1.06722 10.5267ZM1.58922 15.7455C1.3011 15.7455 1.06733 15.5112 1.06733 15.2236V14.7017H2.10849H8.37624H9.41739V15.2236C9.41739 15.5112 9.18363 15.7455 8.8955 15.7455H1.58922ZM18.7169 31.402H13.6865L16.1091 16.8676C16.1242 16.7767 16.2792 16.7767 16.2943 16.8676L18.7169 31.402ZM22.9863 5.30792C22.9863 3.00587 24.8593 1.13289 27.1613 1.13289C29.4634 1.13289 31.3363 3.00587 31.3363 5.30792C31.3363 6.51346 30.8228 7.64492 29.9199 8.43916H24.4026C23.4999 7.64492 22.9863 6.51346 22.9863 5.30792ZM31.3363 9.48294V10.0048H31.3364C31.3364 10.2924 31.1027 10.5267 30.8146 10.5267H23.5082C23.22 10.5267 22.9863 10.2924 22.9863 10.0048V9.48294H24.0274H30.2952H31.3363Z" fill="white" stroke="#9B9B9B" stroke-width="0.000739583"/>
</svg>
