<svg width="22" height="20" viewBox="0 0 22 20" fill="none" xmlns="http://www.w3.org/2000/svg">
<path d="M11 3.50054L10.4596 4.02064C10.601 4.16754 10.7961 4.25054 11 4.25054C11.2039 4.25054 11.399 4.16754 11.5404 4.02064L11 3.50054ZM6.00061 14.4208C5.68078 14.1576 5.20813 14.2035 4.94491 14.5233C4.68169 14.8431 4.72758 15.3158 5.04741 15.579L6.00061 14.4208ZM1.34199 11.4114C1.54074 11.7748 1.99647 11.9083 2.35988 11.7095C2.7233 11.5107 2.85677 11.055 2.65801 10.6916L1.34199 11.4114ZM1.75 7.13701C1.75 4.98614 2.96537 3.18243 4.62436 2.4241C6.23607 1.68739 8.40166 1.88249 10.4596 4.02064L11.5404 2.98044C9.0985 0.443431 6.26409 0.0253011 4.00076 1.05987C1.78471 2.07283 0.25 4.42494 0.25 7.13701H1.75ZM7.49742 17.4998C8.00965 17.9036 8.55954 18.3342 9.1168 18.6598C9.6739 18.9853 10.3096 19.2499 11 19.2499V17.7499C10.6904 17.7499 10.3261 17.6292 9.8736 17.3647C9.4213 17.1004 8.95208 16.7365 8.42605 16.3218L7.49742 17.4998ZM14.5026 17.4998C15.9292 16.3751 17.7528 15.0865 19.1833 13.4757C20.6395 11.836 21.75 9.80251 21.75 7.13701H20.25C20.25 9.33441 19.3508 11.0281 18.0617 12.4797C16.7469 13.9602 15.0896 15.127 13.574 16.3218L14.5026 17.4998ZM21.75 7.13701C21.75 4.42494 20.2153 2.07283 17.9992 1.05987C15.7359 0.0253011 12.9015 0.443431 10.4596 2.98044L11.5404 4.02064C13.5983 1.88249 15.7639 1.68739 17.3756 2.4241C19.0346 3.18243 20.25 4.98614 20.25 7.13701H21.75ZM13.574 16.3218C13.0479 16.7365 12.5787 17.1004 12.1264 17.3647C11.6739 17.6292 11.3096 17.7499 11 17.7499V19.2499C11.6904 19.2499 12.3261 18.9853 12.8832 18.6598C13.4405 18.3342 13.9903 17.9036 14.5026 17.4998L13.574 16.3218ZM8.42605 16.3218C7.63014 15.6944 6.82129 15.0962 6.00061 14.4208L5.04741 15.579C5.87768 16.2623 6.75472 16.9143 7.49742 17.4998L8.42605 16.3218ZM2.65801 10.6916C2.0968 9.66551 1.75 8.50321 1.75 7.13701H0.25C0.25 8.77451 0.66995 10.1826 1.34199 11.4114L2.65801 10.6916Z" fill="#9A9A9A"/>
</svg>
