<svg width="69" height="21" viewBox="0 0 69 21" fill="none" xmlns="http://www.w3.org/2000/svg">
<path fill-rule="evenodd" clip-rule="evenodd" d="M42.8043 16.2452C38.8095 19.1989 32.999 20.7725 27.9874 20.7725C20.9664 20.7725 14.6716 18.182 9.87795 13.8725C9.51479 13.5336 9.82952 13.0736 10.2895 13.3399C15.4464 16.342 21.8137 18.1336 28.399 18.1336C32.8295 18.1336 37.72 17.2136 42.2232 15.301C42.9011 15.0346 43.4579 15.761 42.8043 16.2452Z" fill="#FF9900"/>
<path fill-rule="evenodd" clip-rule="evenodd" d="M44.4748 14.3326C43.9664 13.6789 41.0853 14.0179 39.8022 14.1873C39.4148 14.2358 39.3422 13.8968 39.7053 13.6547C42.0053 12.0326 45.758 12.5168 46.1938 13.0494C46.6296 13.5821 46.0727 17.3589 43.918 19.1505C43.579 19.4168 43.2643 19.2715 43.4096 18.9084C43.8938 17.6979 44.9832 15.0105 44.4748 14.3326Z" fill="#FF9900"/>
<path fill-rule="evenodd" clip-rule="evenodd" d="M39.8747 2.27579V0.702104C39.8747 0.459999 40.0442 0.314734 40.2621 0.314734H47.2832C47.501 0.314734 47.6947 0.484209 47.6947 0.702104V2.03368C47.6947 2.25158 47.501 2.54211 47.1621 3.02632L43.5305 8.20737C44.8863 8.18316 46.3147 8.37684 47.5253 9.05474C47.7916 9.2 47.8642 9.44211 47.8884 9.66V11.3305C47.8884 11.5726 47.6463 11.8389 47.38 11.6937C45.2253 10.5558 42.3442 10.4347 39.9716 11.7179C39.7295 11.8389 39.4632 11.5968 39.4632 11.3547V9.75684C39.4632 9.51474 39.4632 9.07895 39.7295 8.69158L43.9421 2.66316H40.2863C40.0684 2.66316 39.8747 2.49368 39.8747 2.27579ZM14.2842 12.0326H12.1537C11.96 12.0084 11.7905 11.8632 11.7663 11.6695V0.726316C11.7663 0.508421 11.96 0.338946 12.1779 0.338946H14.1632C14.3811 0.338946 14.5263 0.50842 14.5505 0.702104V2.13052H14.5989C15.1074 0.750524 16.1 0.0968406 17.4074 0.0968406C18.7389 0.0968406 19.5863 0.750524 20.1674 2.13052C20.6758 0.750524 21.8621 0.0968406 23.1211 0.0968406C24.0168 0.0968406 24.9853 0.459999 25.5905 1.30737C26.2684 2.22737 26.1232 3.55895 26.1232 4.74527V11.6695C26.1232 11.8874 25.9295 12.0568 25.7116 12.0568H23.6053C23.3874 12.0326 23.2179 11.8632 23.2179 11.6695V5.85894C23.2179 5.39894 23.2663 4.23684 23.1695 3.80105C23 3.07473 22.54 2.85684 21.9105 2.85684C21.4021 2.85684 20.8453 3.19579 20.6274 3.75263C20.4095 4.30947 20.4337 5.22947 20.4337 5.85894V11.6695C20.4337 11.8874 20.24 12.0568 20.0221 12.0568H17.8916C17.6737 12.0326 17.5042 11.8632 17.5042 11.6695V5.85894C17.5042 4.64842 17.6979 2.83263 16.1968 2.83263C14.6716 2.83263 14.72 4.57579 14.72 5.85894V11.6695C14.6958 11.8632 14.5263 12.0326 14.2842 12.0326ZM53.7474 0.0968406C56.9189 0.0968406 58.6379 2.80842 58.6379 6.27053C58.6379 9.61158 56.7495 12.2747 53.7474 12.2747C50.6484 12.2747 48.9537 9.56316 48.9537 6.17369C48.9295 2.76 50.6484 0.0968406 53.7474 0.0968406ZM53.7474 2.34842C52.1737 2.34842 52.0768 4.50316 52.0768 5.83474C52.0768 7.16632 52.0526 10.0232 53.7232 10.0232C55.3695 10.0232 55.4663 7.72316 55.4663 6.31895C55.4663 5.39895 55.4179 4.28527 55.1516 3.41369C54.9095 2.63895 54.4253 2.34842 53.7474 2.34842ZM62.7295 12.0326H60.5989C60.3811 12.0084 60.2116 11.8389 60.2116 11.6453V0.677892C60.2358 0.484208 60.4053 0.314734 60.6232 0.314734H62.6084C62.8021 0.314734 62.9474 0.460002 62.9958 0.629475V2.3H63.0442C63.6495 0.798947 64.4726 0.0968406 65.9495 0.0968406C66.8937 0.0968406 67.8379 0.435785 68.4432 1.38C69 2.25157 69 3.72842 69 4.79368V11.6937C68.9758 11.8874 68.8063 12.0326 68.5884 12.0326H66.4579C66.2642 12.0084 66.0947 11.8632 66.0705 11.6937V5.73789C66.0705 4.52736 66.2158 2.78421 64.7389 2.78421C64.2305 2.78421 63.7463 3.12316 63.5042 3.65579C63.2137 4.33369 63.1653 4.98736 63.1653 5.73789V11.6453C63.141 11.8632 62.9474 12.0326 62.7295 12.0326ZM34.2821 6.80316C34.2821 7.62632 34.3063 8.32842 33.8947 9.07895C33.5558 9.68421 33.0232 10.0474 32.4179 10.0474C31.5947 10.0474 31.1105 9.4179 31.1105 8.4979C31.1105 6.68211 32.7326 6.34315 34.2821 6.34315V6.80316ZM36.4368 12.0084C36.2916 12.1295 36.0979 12.1537 35.9284 12.0568C35.2263 11.4758 35.081 11.1853 34.6937 10.6284C33.5316 11.8147 32.6842 12.1779 31.1832 12.1779C29.3916 12.1779 27.9874 11.0642 27.9874 8.86106C27.9874 7.1179 28.9316 5.95579 30.2632 5.37473C31.4253 4.86631 33.0474 4.76948 34.2821 4.62421V4.3579C34.2821 3.84947 34.3305 3.24421 34.0158 2.80842C33.7495 2.42105 33.2653 2.25158 32.8295 2.25158C32.0063 2.25158 31.28 2.66316 31.1105 3.53474C31.0621 3.72842 30.9411 3.9221 30.7474 3.9221L28.6895 3.70421C28.52 3.65579 28.3263 3.53474 28.3747 3.26842C28.8589 0.750526 31.1105 0 33.1442 0C34.1853 0 35.5411 0.266314 36.3642 1.06526C37.4053 2.03368 37.3084 3.34105 37.3084 4.74527V8.0621C37.3084 9.05473 37.72 9.49053 38.1074 10.0474C38.2526 10.2411 38.2768 10.4832 38.1074 10.6042C37.6474 10.9674 36.8726 11.6453 36.4368 12.0084ZM6.31895 6.80316C6.31895 7.62632 6.34316 8.32842 5.93158 9.07895C5.59263 9.68421 5.06 10.0474 4.45474 10.0474C3.63158 10.0474 3.14737 9.4179 3.14737 8.4979C3.14737 6.68211 4.76948 6.34315 6.31895 6.34315V6.80316ZM8.44947 12.0084C8.30421 12.1295 8.11053 12.1537 7.94105 12.0568C7.23895 11.4758 7.09368 11.1853 6.70632 10.6284C5.54421 11.8147 4.69684 12.1779 3.19579 12.1779C1.40421 12.1779 0 11.0642 0 8.86106C0 7.1179 0.944209 5.95579 2.27579 5.37473C3.43789 4.86631 5.06 4.76948 6.29474 4.62421V4.3579C6.29474 3.84947 6.34316 3.24421 6.02842 2.80842C5.7621 2.42105 5.27789 2.25158 4.84211 2.25158C4.01895 2.25158 3.29263 2.66316 3.12316 3.53474C3.07474 3.72842 2.95368 3.9221 2.76 3.9221L0.702104 3.70421C0.53263 3.65579 0.338949 3.53474 0.38737 3.26842C0.87158 0.750526 3.12316 0 5.15684 0C6.1979 0 7.55369 0.266314 8.37684 1.06526C9.4179 2.03368 9.32105 3.34105 9.32105 4.74527V8.0621C9.32105 9.05473 9.73263 9.49053 10.12 10.0474C10.2653 10.2411 10.2895 10.4832 10.12 10.6042C9.66 10.9674 8.88526 11.6453 8.44947 12.0084Z" fill="black"/>
</svg>
