<svg width="22" height="19" viewBox="0 0 22 19" fill="none" xmlns="http://www.w3.org/2000/svg">
<path d="M4.69481 10.7585L10.6134 16.7161L10.6134 16.7162C10.8234 16.9276 10.941 17.2139 10.941 17.5121C10.941 17.8104 10.8234 18.0967 10.6134 18.3081C10.4034 18.5196 10.1182 18.6387 9.82044 18.6387C9.52269 18.6387 9.23748 18.5196 9.02746 18.3081L1.20219 10.4293C1.20216 10.4293 1.20213 10.4293 1.20209 10.4292L1.20197 10.4291L1.37935 10.2529L4.69481 10.7585ZM4.69481 10.7585H20.2544C20.5519 10.7585 20.8368 10.6395 21.0466 10.4283C21.2564 10.2171 21.3739 9.93099 21.3739 9.63305C21.3739 9.33511 21.2564 9.04904 21.0466 8.83784C20.8368 8.62659 20.5519 8.5076 20.2544 8.5076H4.69497L10.6134 2.55013L10.6134 2.5501C10.8234 2.33871 10.941 2.05235 10.941 1.75412C10.941 1.45588 10.8234 1.16952 10.6134 0.958126C10.4034 0.74667 10.1182 0.627563 9.82044 0.627563C9.52269 0.627563 9.23748 0.74667 9.02746 0.958126L1.20219 8.83692C1.20216 8.83695 1.20213 8.83698 1.2021 8.83701L4.69481 10.7585Z" fill="white" stroke="white" stroke-width="0.5"/>
</svg>
