<svg width="22" height="20" viewBox="0 0 22 20" fill="none" xmlns="http://www.w3.org/2000/svg">
<path d="M4.57091 10.8809L10.4895 16.8386L10.4895 16.8386C10.6995 17.05 10.8171 17.3364 10.8171 17.6346C10.8171 17.9328 10.6995 18.2192 10.4895 18.4306C10.2795 18.642 9.99429 18.7611 9.69654 18.7611C9.39879 18.7611 9.11358 18.642 8.90356 18.4306L1.07829 10.5518L4.57091 10.8809ZM4.57091 10.8809H20.1305C20.428 10.8809 20.7129 10.7619 20.9227 10.5507C21.1325 10.3395 21.25 10.0534 21.25 9.75549C21.25 9.45755 21.1325 9.17147 20.9227 8.96028C20.7129 8.74903 20.428 8.63004 20.1305 8.63004H4.57107L10.4895 2.67256L10.4895 2.67254C10.6995 2.46114 10.8171 2.17478 10.8171 1.87655C10.8171 1.57832 10.6995 1.29196 10.4895 1.08056C10.2795 0.869107 9.9943 0.75 9.69654 0.75C9.39879 0.75 9.11358 0.869107 8.90356 1.08056L1.07829 8.95935C1.07825 8.9594 1.0782 8.95945 1.07815 8.95949L1.07807 8.95958L4.57091 10.8809Z" fill="black" stroke="black" stroke-width="0.5"/>
</svg>
