<svg width="26" height="39" viewBox="0 0 26 39" fill="none" xmlns="http://www.w3.org/2000/svg">
<path d="M24.7098 17.3317L24.7096 17.3321L15.47 36.9791C15.4696 36.98 15.4692 36.9809 15.4687 36.9817C15.2403 37.4517 14.9054 37.8181 14.4556 38.0894C13.9986 38.3651 13.5163 38.5 13 38.5C12.4837 38.5 12.0014 38.3651 11.5444 38.0894C11.0963 37.8192 10.7721 37.4556 10.5607 36.9904L10.5607 36.9903L10.5577 36.984L1.29015 17.3317C1.29014 17.3317 1.29014 17.3317 1.29013 17.3317C0.773104 16.2349 0.5 14.7994 0.5 13C0.5 9.54416 1.71679 6.60751 4.16215 4.16215C6.60751 1.71679 9.54416 0.5 13 0.5C16.4558 0.5 19.3925 1.71679 21.8379 4.16215C24.2832 6.60751 25.5 9.54416 25.5 13C25.5 14.7995 25.2269 16.235 24.7098 17.3317ZM20 13C20 11.073 19.3125 9.41398 17.9493 8.05074C16.586 6.68751 14.927 6 13 6C11.073 6 9.41398 6.68751 8.05074 8.05074C6.68751 9.41398 6 11.073 6 13C6 14.927 6.68751 16.586 8.05074 17.9493C9.41398 19.3125 11.073 20 13 20C14.927 20 16.586 19.3125 17.9493 17.9493C19.3125 16.586 20 14.927 20 13Z" fill="#F24E1E" stroke="#5F1313"/>
</svg>
