<svg width="21" height="21" viewBox="0 0 21 21" fill="none" xmlns="http://www.w3.org/2000/svg">
<path d="M19.3898 13.1765C19.5355 13.4614 19.6114 13.7699 19.6128 14.0822C19.6128 14.6609 19.3506 15.2158 18.8841 15.625C18.4175 16.0342 17.7847 16.2641 17.1249 16.2641H3.32429C2.83191 16.2645 2.35049 16.1367 1.94096 15.897C1.53143 15.6573 1.21221 15.3164 1.02373 14.9174C0.835248 14.5185 0.785977 14.0795 0.882153 13.656C0.97833 13.2325 1.21563 12.8435 1.56401 12.5384L3.18346 11.1181V7.00128C3.18346 5.36351 3.92529 3.79282 5.24576 2.63474C6.56623 1.47666 8.35716 0.826063 10.2246 0.826063C10.6182 0.825321 11.011 0.856328 11.3981 0.918691" stroke="#9B9B9B" stroke-width="1.08337" stroke-linecap="round" stroke-linejoin="round"/>
<path d="M15.857 0.825928V3.97071M13.5097 16.5499H6.46777C6.46777 17.3839 6.83873 18.1838 7.49904 18.7736C8.15935 19.3633 9.05493 19.6947 9.98875 19.6947C10.9226 19.6947 11.8181 19.3633 12.4785 18.7736C13.1388 18.1838 13.5097 17.3839 13.5097 16.5499Z" stroke="#9B9B9B" stroke-width="1.08337" stroke-linecap="round" stroke-linejoin="round"/>
</svg>
