<svg width="33" height="34" viewBox="0 0 33 34" fill="none" xmlns="http://www.w3.org/2000/svg">
<path d="M31.6626 21.6753C31.9047 22.1584 32.0309 22.6817 32.0331 23.2113C32.0331 24.1926 31.5976 25.1338 30.8224 25.8278C30.0472 26.5218 28.9959 26.9116 27.8997 26.9116H4.97102C4.15299 26.9123 3.35313 26.6956 2.67273 26.289C1.99232 25.8825 1.46197 25.3043 1.14883 24.6278C0.835679 23.9512 0.753818 23.2067 0.913608 22.4885C1.0734 21.7702 1.46765 21.1106 2.04645 20.5931L4.73706 18.1843V11.2025C4.73706 8.425 5.96955 5.76122 8.16341 3.79721C10.3573 1.83319 13.3328 0.729819 16.4353 0.729819C17.0893 0.728562 17.7419 0.781147 18.3851 0.88691" stroke="white" stroke-width="1.08337" stroke-linecap="round" stroke-linejoin="round"/>
<path d="M25.7929 0.729492V6.06283M21.893 27.3962H10.1934C10.1934 28.8106 10.8097 30.1672 11.9067 31.1674C13.0038 32.1676 14.4917 32.7295 16.0432 32.7295C17.5947 32.7295 19.0826 32.1676 20.1796 31.1674C21.2767 30.1672 21.893 28.8106 21.893 27.3962Z" stroke="white" stroke-width="1.08337" stroke-linecap="round" stroke-linejoin="round"/>
</svg>
