<svg width="25" height="25" viewBox="0 0 25 25" fill="none" xmlns="http://www.w3.org/2000/svg">
<path d="M23.5609 16.1708C23.7393 16.527 23.8324 16.9128 23.834 17.3032C23.834 18.0266 23.5129 18.7205 22.9415 19.2321C22.37 19.7437 21.595 20.0311 20.7868 20.0311H3.88382C3.28076 20.0315 2.6911 19.8718 2.18951 19.5721C1.68791 19.2724 1.29694 18.8462 1.06609 18.3474C0.835233 17.8487 0.774886 17.2998 0.892683 16.7703C1.01048 16.2408 1.30112 15.7545 1.72782 15.373L3.71134 13.5973V8.45032C3.71134 6.40271 4.61993 4.43897 6.23724 2.9911C7.85456 1.54322 10.0481 0.729814 12.3353 0.729814C12.8174 0.728886 13.2985 0.767652 13.7727 0.845621" stroke="white" stroke-width="1.08337" stroke-linecap="round" stroke-linejoin="round"/>
<path d="M19.2339 0.729492V4.66123M16.3589 20.3882H7.73389C7.73389 21.431 8.18824 22.431 8.99699 23.1684C9.80574 23.9057 10.9026 24.3199 12.0464 24.3199C13.1901 24.3199 14.287 23.9057 15.0958 23.1684C15.9045 22.431 16.3589 21.431 16.3589 20.3882Z" stroke="white" stroke-width="1.08337" stroke-linecap="round" stroke-linejoin="round"/>
</svg>
