<svg width="21" height="21" viewBox="0 0 21 21" fill="none" xmlns="http://www.w3.org/2000/svg">
<rect width="21" height="21" fill="#E9E9E9"/>
<g id="Login">
<rect width="414" height="736" transform="translate(-249 -516)" fill="white"/>
<rect id="Rectangle 6" x="-34" y="-7" width="152" height="38" rx="4" fill="#F0F0F0"/>
<g id="Google">
<path id="Shape" fill-rule="evenodd" clip-rule="evenodd" d="M20.58 10.7385C20.58 9.994 20.5132 9.27809 20.3891 8.59082H10.5V12.6524H16.1509C15.9075 13.9649 15.1677 15.077 14.0557 15.8215V18.456H17.4491C19.4345 16.6281 20.58 13.9363 20.58 10.7385Z" fill="#4285F4"/>
<path id="Shape_2" fill-rule="evenodd" clip-rule="evenodd" d="M10.5 21C13.335 21 15.7118 20.0598 17.4491 18.4561L14.0557 15.8216C13.1155 16.4516 11.9127 16.8239 10.5 16.8239C7.76523 16.8239 5.45046 14.9768 4.62478 12.495H1.11682V15.2155C2.84455 18.647 6.39546 21 10.5 21Z" fill="#34A853"/>
<path id="Shape_3" fill-rule="evenodd" clip-rule="evenodd" d="M4.62477 12.4949C4.41477 11.8649 4.29545 11.192 4.29545 10.4999C4.29545 9.80789 4.41477 9.13494 4.62477 8.50494V5.78448H1.11682C0.405682 7.20198 0 8.80562 0 10.4999C0 12.1943 0.405682 13.7979 1.11682 15.2154L4.62477 12.4949Z" fill="#FBBC05"/>
<path id="Shape_4" fill-rule="evenodd" clip-rule="evenodd" d="M10.5 4.17614C12.0416 4.17614 13.4257 4.70591 14.5139 5.74636L17.5255 2.73477C15.707 1.04045 13.3302 0 10.5 0C6.39546 0 2.84455 2.35295 1.11682 5.78455L4.62478 8.505C5.45046 6.02318 7.76523 4.17614 10.5 4.17614Z" fill="#EA4335"/>
</g>
</g>
</svg>
