<svg width="22" height="19" viewBox="0 0 22 19" fill="none" xmlns="http://www.w3.org/2000/svg">
<path d="M19.154 7.01143C19.7397 7.53551 20.2329 8.04417 20.6029 8.44493C20.8585 8.72816 21 9.09613 21 9.47766C21 9.85919 20.8585 10.2272 20.6029 10.5104C18.9844 12.2522 15.3005 15.6432 11 15.6432H10.3834M6.17544 14.3022C4.38994 13.3022 2.77663 12.022 1.39712 10.5104C1.1415 10.2272 1 9.85919 1 9.47766C1 9.09613 1.1415 8.72816 1.39712 8.44493C3.01559 6.70315 6.69951 3.31209 11 3.31209C12.6952 3.34752 14.3542 3.80866 15.8246 4.6531M19.4777 1L2.52234 17.9553" stroke="#BBBBBB" stroke-width="1.5" stroke-linecap="round" stroke-linejoin="round"/>
<path d="M8.82666 11.651C8.24773 11.0756 7.92068 10.294 7.91724 9.47768C7.91724 8.66008 8.24203 7.87596 8.82016 7.29782C9.3983 6.71969 10.1824 6.3949 11 6.3949C11.8163 6.39834 12.5979 6.72539 13.1734 7.30432M13.682 11.0191C13.4077 11.4881 13.0142 11.8763 12.5414 12.1443" stroke="#BBBBBB" stroke-width="1.5" stroke-linecap="round" stroke-linejoin="round"/>
</svg>
