<svg width="35" height="34" viewBox="0 0 35 34" fill="none" xmlns="http://www.w3.org/2000/svg">
<path d="M17.3029 25.2531V15.5452" stroke="white" stroke-width="1.18333" stroke-linecap="round"/>
<path d="M17.3027 9.07309C18.1963 9.07309 18.9207 9.79749 18.9207 10.6911C18.9207 11.5847 18.1963 12.3091 17.3027 12.3091C16.4091 12.3091 15.6847 11.5847 15.6847 10.6911C15.6847 9.79749 16.4091 9.07309 17.3027 9.07309Z" fill="white"/>
<path d="M9.21256 3.14774C11.5924 1.77107 14.3555 0.983154 17.3026 0.983154C26.2384 0.983154 33.4826 8.22716 33.4826 17.1631C33.4826 26.099 26.2384 33.3431 17.3026 33.3431C8.36659 33.3431 1.12256 26.099 1.12256 17.1631C1.12256 14.2161 1.91048 11.453 3.28715 9.07313" stroke="white" stroke-width="1.18333" stroke-linecap="round"/>
</svg>
