<svg width="32" height="32" viewBox="0 0 32 32" fill="none" xmlns="http://www.w3.org/2000/svg">
<path d="M16.1456 23.5173V14.5037" stroke="white" stroke-width="1.18333" stroke-linecap="round"/>
<path d="M16.1455 8.49447C16.9752 8.49447 17.6477 9.16706 17.6477 9.99675C17.6477 10.8264 16.9752 11.499 16.1455 11.499C15.3158 11.499 14.6432 10.8264 14.6432 9.99675C14.6432 9.16706 15.3158 8.49447 16.1455 8.49447Z" fill="white"/>
<path d="M8.63396 2.99293C10.8436 1.71472 13.4091 0.983154 16.1454 0.983154C24.4421 0.983154 31.1682 7.70907 31.1682 16.0059C31.1682 24.3027 24.4421 31.0287 16.1454 31.0287C7.84849 31.0287 1.12256 24.3027 1.12256 16.0059C1.12256 13.2697 1.85412 10.7042 3.13234 8.49453" stroke="white" stroke-width="1.18333" stroke-linecap="round"/>
</svg>
