<svg width="70" height="58" viewBox="0 0 70 58" fill="none" xmlns="http://www.w3.org/2000/svg">
<g filter="url(#filter0_d_74_1934)">
<rect x="12.5001" y="8" width="45" height="44.05" rx="7" fill="#0635AD"/>
<path d="M46.8363 28.8979L36.6034 18.6634C36.1787 18.2387 35.6017 18 35.0013 18C34.4004 18 33.8234 18.2387 33.3987 18.6634L23.1637 28.8979C22.516 29.5456 22.3219 30.512 22.6726 31.3587C23.0239 32.2054 23.85 32.7492 24.7663 32.7492H26.0736V40.0694C26.0736 41.1641 26.9475 42.05 28.0428 42.05H29.7846V35.4324C29.7846 34.9282 30.2011 34.5345 30.7047 34.5345H34.0888C34.5924 34.5345 34.9986 34.9288 34.9986 35.4324V42.0494H41.9588C43.0535 42.0494 43.9231 41.1636 43.9231 40.0689V32.7492H45.2342C46.1505 32.7492 46.9766 32.2054 47.3279 31.3587C47.6781 30.512 47.4845 29.5462 46.8363 28.8979Z" fill="white"/>
</g>
<defs>
<filter id="filter0_d_74_1934" x="0.500122" y="0" width="69" height="68.05" filterUnits="userSpaceOnUse" color-interpolation-filters="sRGB">
<feFlood flood-opacity="0" result="BackgroundImageFix"/>
<feColorMatrix in="SourceAlpha" type="matrix" values="0 0 0 0 0 0 0 0 0 0 0 0 0 0 0 0 0 0 127 0" result="hardAlpha"/>
<feOffset dy="4"/>
<feGaussianBlur stdDeviation="6"/>
<feColorMatrix type="matrix" values="0 0 0 0 0.0231101 0 0 0 0 0.206633 0 0 0 0 0.67855 0 0 0 0.3 0"/>
<feBlend mode="normal" in2="BackgroundImageFix" result="effect1_dropShadow_74_1934"/>
<feBlend mode="normal" in="SourceGraphic" in2="effect1_dropShadow_74_1934" result="shape"/>
</filter>
</defs>
</svg>
