<svg width="70" height="60" viewBox="0 0 70 60" fill="none" xmlns="http://www.w3.org/2000/svg">
<g filter="url(#filter0_d_198_5466)">
<rect x="12.5" y="8" width="45" height="44.05" rx="7" fill="#0635AD"/>
</g>
<path d="M24.4859 27.5795C25.0372 27.9259 25.392 28.516 25.392 29.1671C25.392 29.8182 25.0372 30.4083 24.4859 30.7547C24.1107 30.9904 23.869 31.1788 23.697 31.403C23.3203 31.894 23.154 32.5145 23.2348 33.1281C23.2954 33.5882 23.5672 34.059 24.1108 35.0006C24.6545 35.9422 24.9263 36.413 25.2945 36.6955C25.7855 37.0723 26.406 37.2385 27.0196 37.1578C27.2996 37.1209 27.5836 37.0058 27.9753 36.7988C28.551 36.4945 29.2395 36.4824 29.8035 36.808C30.3674 37.1336 30.7011 37.7359 30.7254 38.3866C30.742 38.8293 30.7843 39.1329 30.8924 39.3939C31.1292 39.9656 31.5835 40.4199 32.1552 40.6568C32.5841 40.8343 33.1276 40.8343 34.2149 40.8343C35.3022 40.8343 35.8457 40.8343 36.2746 40.6568C36.8463 40.4199 37.3006 39.9656 37.5375 39.3939C37.6455 39.1329 37.6879 38.8293 37.7044 38.3867C37.7287 37.7359 38.0624 37.1336 38.6264 36.808C39.1903 36.4825 39.8787 36.4946 40.4544 36.7989C40.8462 37.0059 41.1302 37.121 41.4102 37.1579C42.0238 37.2388 42.6443 37.0724 43.1353 36.6957C43.5035 36.4132 43.7753 35.9423 44.319 35.0008C44.561 34.5816 44.7492 34.2557 44.8887 33.9824M43.9438 30.7548C43.3925 30.4084 43.0379 29.8183 43.0377 29.1673C43.0377 28.5161 43.3925 27.9259 43.9438 27.5795C44.319 27.3438 44.5607 27.1554 44.7326 26.9313C45.1094 26.4403 45.2756 25.8198 45.1949 25.2062C45.1343 24.746 44.8625 24.2752 44.3188 23.3336C43.7752 22.3921 43.5034 21.9213 43.1352 21.6387C42.6442 21.262 42.0236 21.0957 41.4101 21.1765C41.13 21.2134 40.8461 21.3285 40.4544 21.5355C39.8786 21.8398 39.1901 21.8519 38.6263 21.5263C38.0624 21.2007 37.7287 20.5985 37.7044 19.9478C37.6879 19.505 37.6455 19.2015 37.5375 18.9405C37.3006 18.3687 36.8463 17.9145 36.2746 17.6776C35.8457 17.5 35.3022 17.5 34.2149 17.5C33.1276 17.5 32.5841 17.5 32.1552 17.6776C31.5835 17.9145 31.1292 18.3687 30.8924 18.9405C30.7843 19.2015 30.742 19.505 30.7254 19.9477C30.7011 20.5984 30.3674 21.2007 29.8034 21.5263C29.2395 21.8519 28.5511 21.8397 27.9754 21.5354C27.5837 21.3284 27.2997 21.2133 27.0196 21.1764C26.406 21.0956 25.7855 21.2619 25.2945 21.6387C24.9263 21.9212 24.6545 22.392 24.1108 23.3336C23.8688 23.7528 23.6807 24.0786 23.5411 24.3518" fill="white"/>
<path d="M34.2148 32.6673C36.1478 32.6673 37.7149 31.1002 37.7149 29.1671C37.7149 27.2341 36.1478 25.667 34.2148 25.667C32.2817 25.667 30.7146 27.2341 30.7146 29.1671C30.7146 31.1002 32.2817 32.6673 34.2148 32.6673Z" fill="white" stroke="#0635AD"/>
<defs>
<filter id="filter0_d_198_5466" x="0.5" y="0" width="69" height="68.0499" filterUnits="userSpaceOnUse" color-interpolation-filters="sRGB">
<feFlood flood-opacity="0" result="BackgroundImageFix"/>
<feColorMatrix in="SourceAlpha" type="matrix" values="0 0 0 0 0 0 0 0 0 0 0 0 0 0 0 0 0 0 127 0" result="hardAlpha"/>
<feOffset dy="4"/>
<feGaussianBlur stdDeviation="6"/>
<feColorMatrix type="matrix" values="0 0 0 0 0.0231101 0 0 0 0 0.206633 0 0 0 0 0.67855 0 0 0 0.3 0"/>
<feBlend mode="normal" in2="BackgroundImageFix" result="effect1_dropShadow_198_5466"/>
<feBlend mode="normal" in="SourceGraphic" in2="effect1_dropShadow_198_5466" result="shape"/>
</filter>
</defs>
</svg>
