<svg width="14" height="13" viewBox="0 0 14 13" fill="none" xmlns="http://www.w3.org/2000/svg">
<path fill-rule="evenodd" clip-rule="evenodd" d="M9.82226 0.530762C8.68438 0.530762 7.59228 1.06046 6.87948 1.89752C6.16667 1.06046 5.07457 0.530762 3.9367 0.530762C1.92253 0.530762 0.339966 2.11332 0.339966 4.12749C0.339966 6.59943 2.5634 8.6136 5.93125 11.6741L6.87948 12.5308L7.8277 11.6675C11.1956 8.6136 13.419 6.59943 13.419 4.12749C13.419 2.11332 11.8364 0.530762 9.82226 0.530762ZM6.94487 10.6997L6.87947 10.7651L6.81407 10.6997C3.70127 7.88116 1.64786 6.0174 1.64786 4.12749C1.64786 2.81958 2.62879 1.83866 3.93669 1.83866C4.94378 1.83866 5.9247 2.48607 6.2713 3.38198H7.49418C7.83424 2.48607 8.81516 1.83866 9.82225 1.83866C11.1302 1.83866 12.1111 2.81958 12.1111 4.12749C12.1111 6.0174 10.0577 7.88116 6.94487 10.6997Z" fill="#9B9B9B"/>
</svg>
