<svg width="23" height="25" viewBox="0 0 23 25" fill="none" xmlns="http://www.w3.org/2000/svg">
<path d="M11.5 5.99493V9.74118" stroke="#BBBBBB" stroke-width="1.536" stroke-miterlimit="10" stroke-linecap="round"/>
<path d="M11.5225 1C7.38251 1 4.03001 4.3525 4.03001 8.4925V10.855C4.03001 11.62 3.71501 12.7675 3.32126 13.42L1.89251 15.805C1.01501 17.2787 1.62251 18.9212 3.24251 19.4612C8.62001 21.25 14.4362 21.25 19.8137 19.4612C21.3325 18.955 21.985 17.1775 21.1637 15.805L19.735 13.42C19.3412 12.7675 19.0262 11.6088 19.0262 10.855V8.4925C19.015 4.375 15.64 1 11.5225 1Z" stroke="#BBBBBB" stroke-width="1.536" stroke-miterlimit="10" stroke-linecap="round"/>
<path d="M15.2462 19.9226C15.2462 21.9814 13.5587 23.6689 11.5 23.6689C10.4762 23.6689 9.53124 23.2414 8.85628 22.5664C8.18128 21.8914 7.75378 20.9464 7.75378 19.9226" stroke="#BBBBBB" stroke-width="1.536" stroke-miterlimit="10"/>
</svg>
